<svg width="761" height="788" viewBox="0 0 761 788" fill="none" xmlns="http://www.w3.org/2000/svg">
<path fill-rule="evenodd" clip-rule="evenodd" d="M208 0.976826C208 1.52683 206.65 1.97683 205 1.97683C203 1.97683 202 2.47683 202 3.47683C202 4.40983 201.056 4.97683 199.5 4.97683C197.5 4.97683 197 5.47683 197 7.47683C197 9.47683 196.5 9.97683 194.5 9.97683C192.338 9.97683 192 10.4238 192 13.2768C192 15.0918 191.46 17.1168 190.8 17.7768C189.867 18.7098 189.867 19.2438 190.8 20.1768C191.591 20.9678 192 25.2028 192 32.5938C192 40.6778 192.349 43.9268 193.25 44.2268C194.136 44.5218 194.603 48.3268 194.853 57.3098C195.047 64.2768 195.609 69.9768 196.103 69.9768C196.598 69.9768 197 77.8428 197 87.5479C197 101.834 197.28 105.4 198.5 106.62C199.683 107.803 200 110.936 200 121.465C200 128.939 200.416 134.957 200.945 135.144C201.876 135.472 203.678 170.762 204.612 206.945C204.942 219.737 205.459 225.677 206.294 226.271C207.229 226.937 207.219 227.243 206.25 227.636C205.563 227.915 205 229.006 205 230.06C205 233.141 201.405 235.977 197.5 235.977C195.575 235.977 194 235.527 194 234.977C194 234.427 193.345 233.977 192.545 233.977C190.661 233.977 186 229.316 186 227.432C186 226.632 185.55 225.977 185 225.977C184.45 225.977 184 225.302 184 224.477C184 223.652 183.325 222.977 182.5 222.977C181.567 222.977 181 222.033 181 220.477C181 219.102 180.599 217.977 180.108 217.977C179.618 217.977 178.934 216.852 178.589 215.477C178.244 214.102 177.52 212.977 176.981 212.977C176.441 212.977 176 212.302 176 211.477C176 210.652 175.57 209.977 175.045 209.977C174.52 209.977 173.795 208.402 173.434 206.477C173.073 204.552 172.377 202.977 171.889 202.977C171.4 202.977 171 202.077 171 200.977C171 199.877 170.58 198.977 170.067 198.977C169.554 198.977 168.82 197.985 168.435 196.774C168.051 195.562 167.121 193.955 166.368 193.202C165.616 192.45 165 191.191 165 190.406C165 189.62 164.55 188.977 164 188.977C163.45 188.977 163 187.402 163 185.477C163 183.033 162.548 181.977 161.5 181.977C160.567 181.977 160 181.033 160 179.477C160 178.102 159.55 176.977 159 176.977C158.45 176.977 158 175.627 158 173.977C158 171.977 157.5 170.977 156.5 170.977C155.675 170.977 155 170.302 155 169.477C155 168.652 154.559 167.977 154.019 167.977C153.48 167.977 152.756 166.852 152.411 165.477C152.066 164.102 151.382 162.977 150.892 162.977C150.401 162.977 150 161.852 150 160.477C150 159.102 149.559 157.977 149.019 157.977C148.48 157.977 147.756 156.852 147.411 155.477C147.066 154.102 146.382 152.977 145.892 152.977C145.401 152.977 145 151.852 145 150.477C145 148.921 144.433 147.977 143.5 147.977C142.58 147.977 142 147.042 142 145.56C142 144.231 141.663 142.994 141.25 142.81C140.007 142.258 137 135.951 137 133.896C137 132.841 136.325 131.977 135.5 131.977C134.567 131.977 134 131.033 134 129.477C134 128.102 133.55 126.977 133 126.977C132.45 126.977 132 125.852 132 124.477C132 122.921 131.433 121.977 130.5 121.977C129.567 121.977 129 121.033 129 119.477C129 118.102 128.55 116.977 128 116.977C127.45 116.977 127 116.357 127 115.599C127 114.842 126.325 113.662 125.5 112.977C124.675 112.292 124 110.887 124 109.855C124 108.822 123.559 107.977 123.019 107.977C122.48 107.977 121.756 106.852 121.411 105.477C121.066 104.102 120.382 102.977 119.892 102.977C119.401 102.977 119 101.402 119 99.4768C119 97.0328 118.548 95.9768 117.5 95.9768C116.585 95.9768 116 95.0438 116 93.5838C116 92.2678 115.325 90.9318 114.5 90.6148C113.675 90.2988 113 89.1258 113 88.0078C113 86.8908 112.55 85.9768 112 85.9768C111.45 85.9768 111 84.6268 111 82.9768C111 80.9768 110.5 79.9768 109.5 79.9768C108.675 79.9768 108 79.3018 108 78.4768C108 77.6518 107.55 76.9768 107 76.9768C106.45 76.9768 106 76.0768 106 74.9768C106 73.8658 105.333 72.9768 104.5 72.9768C103.675 72.9768 103 72.2698 103 71.4058C103 70.5408 102.438 69.2069 101.75 68.4399C99.034 65.4118 98 64.0348 98 63.4478C98 63.1098 97.264 62.0988 96.366 61.1998C94.343 59.1768 80.886 58.8198 80.235 60.7708C80.014 61.4338 78.746 61.9768 77.417 61.9768C75.935 61.9768 75 62.5568 75 63.4768C75 64.3018 74.518 64.9768 73.929 64.9768C73.339 64.9768 72.214 65.6198 71.429 66.4058C69.351 68.4828 69.409 86.5288 71.5 88.6198C72.325 89.4448 73 91.2129 73 92.5479C73 93.8839 73.45 94.9768 74 94.9768C74.55 94.9768 75 96.0538 75 97.3698C75 98.6858 75.675 100.022 76.5 100.339C77.325 100.655 78 102.053 78 103.446C78 104.838 78.45 105.977 79 105.977C79.55 105.977 80 107.552 80 109.477C80 111.921 80.452 112.977 81.5 112.977C82.5 112.977 83 113.977 83 115.977C83 117.977 83.5 118.977 84.5 118.977C85.433 118.977 86 119.921 86 121.477C86 124.078 87.503 124.902 88.28 122.727C88.539 122 89.097 121.848 89.613 122.364C90.129 122.88 89.977 123.438 89.25 123.697C87.496 124.324 87.687 128.643 89.5 129.339C90.325 129.655 91 131.053 91 132.446C91 133.838 91.45 134.977 92 134.977C92.55 134.977 93 135.909 93 137.048C93 138.188 93.675 139.795 94.5 140.62C95.325 141.445 96 143.213 96 144.548C96 145.884 96.414 146.977 96.921 146.977C97.427 146.977 98.138 148.327 98.5 149.977C98.862 151.627 99.573 152.977 100.079 152.977C100.586 152.977 101 153.909 101 155.048C101 156.188 101.675 157.795 102.5 158.62C103.325 159.445 104 161.213 104 162.548C104 163.884 104.45 164.977 105 164.977C105.55 164.977 106 166.327 106 167.977C106 169.977 106.5 170.977 107.5 170.977C108.433 170.977 109 171.921 109 173.477C109 174.852 109.401 175.977 109.892 175.977C110.382 175.977 111.066 177.102 111.411 178.477C111.756 179.852 112.48 180.977 113.019 180.977C113.559 180.977 114 182.777 114 184.977C114 187.866 114.417 188.977 115.5 188.977C116.433 188.977 117 189.921 117 191.477C117 192.852 117.45 193.977 118 193.977C118.55 193.977 119 195.327 119 196.977C119 198.977 119.5 199.977 120.5 199.977C121.539 199.977 122 201.021 122 203.37C122 205.464 122.574 206.983 123.5 207.339C124.325 207.655 125 208.828 125 209.946C125 211.063 125.45 211.977 126 211.977C126.55 211.977 127 213.134 127 214.548C127 215.963 127.675 217.795 128.5 218.62C129.325 219.445 130 221.213 130 222.548C130 223.884 130.45 224.977 131 224.977C131.55 224.977 132 226.327 132 227.977C132 229.977 132.5 230.977 133.5 230.977C134.433 230.977 135 231.921 135 233.477C135 234.852 135.43 235.977 135.955 235.977C136.48 235.977 137.205 237.552 137.566 239.477C137.927 241.402 138.623 242.977 139.111 242.977C139.6 242.977 140 244.134 140 245.548C140 246.963 140.675 248.795 141.5 249.62C142.325 250.445 143 252.888 143 255.048C143 257.209 143.45 258.977 144 258.977C144.583 258.977 145 262.31 145 266.977C145 271.644 144.583 274.977 144 274.977C143.45 274.977 143 275.652 143 276.477C143 277.302 142.325 277.977 141.5 277.977C140.675 277.977 140 278.427 140 278.977C140 279.527 138.2 279.977 136 279.977C133.8 279.977 132 279.527 132 278.977C132 278.427 130.2 277.977 128 277.977C125.111 277.977 124 277.56 124 276.477C124 275.544 123.056 274.977 121.5 274.977C120.125 274.977 119 274.527 119 273.977C119 273.427 118.325 272.977 117.5 272.977C116.675 272.977 116 272.532 116 271.988C116 270.748 112.823 266.977 111.778 266.977C111.35 266.977 111 267.652 111 268.477C111 269.302 110.55 269.977 110 269.977C109.45 269.977 109 269.302 109 268.477C109 267.652 109.45 266.977 110 266.977C110.55 266.977 111 265.852 111 264.477C111 263.102 110.518 261.977 109.929 261.977C108.544 261.977 106 259.433 106 258.048C106 257.459 105.515 256.977 104.923 256.977C103.038 256.977 98 251.211 98 249.054C98 247.874 97.352 246.977 96.5 246.977C95.675 246.977 95 246.495 95 245.906C95 243.825 92.024 241.836 89.753 242.399C88.514 242.707 88.063 242.7 88.75 242.384C90.631 241.521 90.271 240.132 87.5 237.565C86.125 236.29 85 234.93 85 234.541C85 233.451 82.272 230.977 81.071 230.977C80.482 230.977 80 229.852 80 228.477C80 225.878 77.537 224.939 76.72 227.227C76.461 227.954 75.903 228.106 75.387 227.59C74.871 227.074 75.023 226.516 75.75 226.257C77.468 225.643 77.332 222.977 75.583 222.977C74.804 222.977 73.908 223.54 73.593 224.227C73.277 224.915 73.235 224.574 73.5 223.47C73.794 222.241 73.015 220.339 71.49 218.564C70.121 216.97 69 215.061 69 214.321C69 213.582 68.55 212.977 68 212.977C67.45 212.977 67 212.302 67 211.477C67 210.652 66.518 209.977 65.929 209.977C64.236 209.977 60.587 205.398 59.354 201.727C59.031 200.765 58.144 199.977 57.383 199.977C56.623 199.977 56 199.495 56 198.906C56 197.521 53.456 194.977 52.071 194.977C51.482 194.977 51 194.466 51 193.842C51 193.217 49.875 191.664 48.5 190.389C47.125 189.115 46 187.151 46 186.025C46 184.507 45.353 183.977 43.5 183.977C41.5 183.977 41 183.477 41 181.477C41 179.987 40.428 178.977 39.583 178.977C38.804 178.977 37.977 178.415 37.746 177.727C37.421 176.762 36.932 176.802 35.6 177.902C34.024 179.203 33.932 179.095 34.546 176.652C35.215 173.983 33.612 172.731 32.72 175.227C32.461 175.954 31.903 176.106 31.387 175.59C30.871 175.074 31.023 174.516 31.75 174.257C33.558 173.611 33.339 168.977 31.5 168.977C30.675 168.977 30 168.302 30 167.477C30 166.644 29.111 165.977 28 165.977C26.9 165.977 26 165.563 26 165.056C26 164.55 24.65 163.839 23 163.477C21.35 163.115 20 162.404 20 161.898C20 161.391 18.2 160.977 16 160.977C13.8 160.977 12 161.397 12 161.91C12 162.423 11.123 163.121 10.051 163.461C8.97899 163.801 7.82399 164.955 7.48499 166.026C7.14499 167.096 5.77201 168.247 4.43301 168.583C1.79901 169.244 0.927 173.427 3.25 174.257C3.977 174.516 4.12901 175.074 3.61301 175.59C3.09701 176.106 2.539 175.954 2.28 175.227C1.503 173.052 0 173.876 0 176.477C0 177.852 0.45 178.977 1 178.977C1.55 178.977 2 180.102 2 181.477C2 183.033 2.567 183.977 3.5 183.977C4.488 183.977 5 184.965 5 186.87C5 188.519 5.645 190.011 6.5 190.339C7.325 190.655 8 191.603 8 192.446C8 193.288 8.45 193.977 9 193.977C9.55 193.977 10 195.054 10 196.37C10 197.686 10.675 199.022 11.5 199.339C12.325 199.655 13 200.828 13 201.946C13 203.063 13.45 203.977 14 203.977C14.55 203.977 15 205.327 15 206.977C15 208.627 15.482 209.977 16.071 209.977C17.597 209.977 19.618 212.199 20.435 214.774C20.82 215.985 21.554 216.977 22.067 216.977C22.58 216.977 23 217.652 23 218.477C23 219.302 23.401 219.977 23.892 219.977C24.382 219.977 25.066 221.102 25.411 222.477C25.756 223.852 26.48 224.977 27.019 224.977C27.559 224.977 28 225.652 28 226.477C28 227.302 28.441 227.977 28.981 227.977C29.52 227.977 30.244 229.102 30.589 230.477C30.934 231.852 31.569 232.977 32 232.977C32.431 232.977 33.066 234.102 33.411 235.477C33.756 236.852 34.48 237.977 35.019 237.977C35.559 237.977 36 238.652 36 239.477C36 240.302 36.675 240.977 37.5 240.977C38.433 240.977 39 241.921 39 243.477C39 244.852 39.45 245.977 40 245.977C40.55 245.977 41 246.652 41 247.477C41 248.302 41.675 248.977 42.5 248.977C43.433 248.977 44 249.921 44 251.477C44 253.033 44.567 253.977 45.5 253.977C46.325 253.977 47 254.652 47 255.477C47 257.292 48.656 257.474 49.28 255.727C49.539 255 50.097 254.848 50.613 255.364C51.129 255.88 50.977 256.438 50.25 256.697C48.728 257.241 48.568 261.977 50.071 261.977C51.836 261.977 54 264.692 54 266.906C54 268.08 54.649 268.977 55.5 268.977C56.325 268.977 57 269.652 57 270.477C57 271.302 57.401 271.977 57.892 271.977C58.382 271.977 59.066 273.102 59.411 274.477C59.756 275.852 60.48 276.977 61.019 276.977C61.559 276.977 62 277.652 62 278.477C62 279.302 62.675 279.977 63.5 279.977C64.325 279.977 65 280.652 65 281.477C65 282.302 65.45 282.977 66 282.977C66.55 282.977 67 284.102 67 285.477C67 286.852 67.482 287.977 68.071 287.977C69.597 287.977 71.618 290.199 72.435 292.774C72.82 293.985 73.554 294.977 74.067 294.977C74.58 294.977 75 295.604 75 296.37C75 297.136 75.675 298.022 76.5 298.339C77.325 298.655 78 299.828 78 300.946C78 302.063 78.45 302.977 79 302.977C79.55 302.977 80 303.652 80 304.477C80 305.302 80.441 305.977 80.981 305.977C81.52 305.977 82.244 307.102 82.589 308.477C82.934 309.852 83.843 310.977 84.608 310.977C85.426 310.977 86 312.008 86 313.477C86 314.852 86.45 315.977 87 315.977C87.55 315.977 88 316.652 88 317.477C88 318.302 88.675 318.977 89.5 318.977C90.433 318.977 91 319.921 91 321.477C91 322.852 91.45 323.977 92 323.977C92.55 323.977 93 325.102 93 326.477C93 328.033 93.567 328.977 94.5 328.977C95.325 328.977 96 329.652 96 330.477C96 331.302 96.414 331.977 96.921 331.977C97.427 331.977 98.138 333.327 98.5 334.977C98.862 336.627 99.573 337.977 100.079 337.977C100.586 337.977 101 339.552 101 341.477C101 343.921 101.452 344.977 102.5 344.977C103.433 344.977 104 345.921 104 347.477C104 348.852 104.45 349.977 105 349.977C105.55 349.977 106 351.064 106 352.394C106 353.723 106.494 354.975 107.098 355.176C107.702 355.378 108.442 357.778 108.743 360.51C109.043 363.242 109.755 365.779 110.325 366.148C110.895 366.516 111.559 369.554 111.801 372.898C112.042 376.241 112.636 378.977 113.12 378.977C113.604 378.977 114 382.54 114 386.894C114 391.919 114.415 394.949 115.137 395.189C115.794 395.408 116.483 398.821 116.769 403.273C117.041 407.51 117.654 410.977 118.132 410.977C118.609 410.977 119 413.854 119 417.37C119 422.13 119.383 423.91 120.5 424.339C121.562 424.746 122 426.404 122 430.017C122 433.22 122.559 435.678 123.5 436.62C124.325 437.445 125 439.888 125 442.048C125 444.209 125.45 445.977 126 445.977C126.55 445.977 127 447.739 127 449.894C127 452.048 127.479 453.97 128.065 454.165C128.65 454.36 129.384 456.423 129.696 458.749C130.008 461.074 130.654 462.977 131.132 462.977C131.609 462.977 132 464.552 132 466.477C132 468.921 132.452 469.977 133.5 469.977C134.633 469.977 135 471.199 135 474.977C135 477.727 135.445 479.977 135.988 479.977C136.532 479.977 137.264 481.777 137.616 483.977C137.968 486.177 138.648 487.977 139.128 487.977C139.608 487.977 140 489.777 140 491.977C140 494.866 140.417 495.977 141.5 495.977C142.433 495.977 143 496.921 143 498.477C143 499.852 143.45 500.977 144 500.977C144.55 500.977 145 502.102 145 503.477C145 505.033 145.567 505.977 146.5 505.977C147.415 505.977 148 506.91 148 508.37C148 509.686 148.675 511.022 149.5 511.339C150.325 511.655 151 512.888 151 514.078C151 515.269 151.836 516.97 152.857 517.86C153.878 518.749 155.034 520.49 155.424 521.727C155.815 522.964 156.554 523.977 157.067 523.977C157.58 523.977 158 524.652 158 525.477C158 526.302 158.675 526.977 159.5 526.977C160.325 526.977 161 527.488 161 528.112C161 528.737 162.125 530.29 163.5 531.565C164.875 532.839 166 534.578 166 535.429C166 536.281 166.675 536.977 167.5 536.977C168.325 536.977 169 537.459 169 538.048C169 539.823 171.72 541.977 173.96 541.977C175.117 541.977 176.322 542.652 176.638 543.477C177.275 545.137 181 545.564 181 543.977C181 543.427 181.675 542.977 182.5 542.977C183.325 542.977 184 543.379 184 543.87C184 544.361 183.325 545.022 182.5 545.339C180.11 546.256 180.763 547.977 183.5 547.977C184.875 547.977 186 548.378 186 548.869C186 549.359 187.233 550.07 188.74 550.448C190.247 550.826 191.783 551.627 192.154 552.227C193.128 553.802 219.184 553.298 220.181 551.684C220.718 550.815 225.852 550.477 238.5 550.477C253.025 550.477 256.24 550.737 257.036 551.977C257.708 553.023 258.227 553.139 258.75 552.362C259.163 551.748 260.489 550.938 261.699 550.561C262.908 550.183 264.176 548.998 264.516 547.926C264.856 546.854 265.554 545.977 266.067 545.977C266.58 545.977 267 545.466 267 544.842C267 544.217 268.125 542.664 269.5 541.389C270.875 540.115 272 538.601 272 538.025C272 537.448 272.675 536.977 273.5 536.977C274.364 536.977 275 536.073 275 534.845C275 533.673 276.518 531.281 278.373 529.532C280.229 527.782 282.059 525.366 282.441 524.164C282.822 522.961 283.554 521.977 284.067 521.977C284.58 521.977 285 521.302 285 520.477C285 519.652 285.675 518.977 286.5 518.977C287.325 518.977 288 518.302 288 517.477C288 516.652 288.45 515.977 289 515.977C289.55 515.977 290 515.14 290 514.117C290 513.094 291.125 511.412 292.5 510.38C293.875 509.347 295 507.934 295 507.24C295 506.545 295.675 505.977 296.5 505.977C297.433 505.977 298 505.033 298 503.477C298 501.921 298.567 500.977 299.5 500.977C300.325 500.977 301 500.302 301 499.477C301 498.652 300.55 497.977 300 497.977C299.45 497.977 299 497.077 299 495.977C299 494.877 299.45 493.977 300 493.977C300.55 493.977 301 494.877 301 495.977C301 497.077 301.45 497.977 302 497.977C302.55 497.977 303 497.527 303 496.977C303 496.427 303.675 495.977 304.5 495.977C305.421 495.977 306 495.041 306 493.55C306 492.188 307.039 490.305 308.365 489.262C309.666 488.238 311.047 486.406 311.433 485.189C311.819 483.972 312.554 482.977 313.067 482.977C313.58 482.977 314 482.468 314 481.845C314 481.223 315.575 479.228 317.5 477.412C319.425 475.597 321 473.181 321 472.044C321 470.873 321.65 469.977 322.5 469.977C323.325 469.977 324 469.302 324 468.477C324 467.652 323.55 466.977 323 466.977C322.45 466.977 322 466.527 322 465.977C322 465.427 323.125 464.977 324.5 464.977C326.056 464.977 327 464.41 327 463.477C327 462.652 327.45 461.977 328 461.977C328.55 461.977 329 461.302 329 460.477C329 459.652 329.675 458.977 330.5 458.977C331.426 458.977 332 458.038 332 456.522C332 455.172 333.125 452.943 334.5 451.568C335.875 450.193 337 448.66 337 448.163C337 447.665 338.125 446.412 339.5 445.38C340.895 444.332 342 442.488 342 441.208C342 439.947 342.675 438.655 343.5 438.339C344.325 438.022 345 436.686 345 435.37C345 434.054 345.45 432.977 346 432.977C346.55 432.977 347 431.852 347 430.477C347 428.921 347.567 427.977 348.5 427.977C349.548 427.977 350 426.921 350 424.477C350 422.033 350.452 420.977 351.5 420.977C352.325 420.977 353 420.302 353 419.477C353 418.652 353.45 417.977 354 417.977C354.55 417.977 355 416.838 355 415.446C355 414.053 355.675 412.655 356.5 412.339C357.325 412.022 358 410.911 358 409.87C358 408.11 357.09 407.977 345.083 407.977C335.779 407.977 332.052 408.32 331.758 409.202C331.172 410.961 293.828 410.961 293.242 409.202C292.966 408.374 290.29 407.977 284.988 407.977C279.348 407.977 276.721 407.555 275.643 406.477C274.818 405.652 272.536 404.977 270.571 404.977C268.607 404.977 267 404.585 267 404.105C267 403.625 265.2 402.945 263 402.593C260.8 402.241 259 401.509 259 400.965C259 400.422 257.686 399.977 256.081 399.977C253.239 399.977 246.836 397.232 246.167 395.727C245.983 395.314 245.196 394.977 244.417 394.977C243.637 394.977 243 394.302 243 393.477C243 392.626 242.103 391.977 240.929 391.977C238.715 391.977 236 389.813 236 388.048C236 387.459 235.325 386.977 234.5 386.977C233.675 386.977 233 386.527 233 385.977C233 385.427 232.357 384.977 231.571 384.977C230.128 384.977 223 378.814 223 377.567C223 377.196 222.536 376.349 221.969 375.685C221.402 375.021 219.602 372.933 217.969 371.047C215.962 368.728 215 366.541 215 364.297C215 362.013 214.532 360.977 213.5 360.977C212.367 360.977 212 359.755 212 355.977C212 353.227 211.55 350.977 211 350.977C210.397 350.977 210 346.81 210 340.477C210 334.144 210.397 329.977 211 329.977C211.55 329.977 212 328.659 212 327.048C212 325.438 212.675 323.445 213.5 322.62C214.325 321.795 215 320.188 215 319.048C215 317.909 215.401 316.977 215.892 316.977C216.382 316.977 217.064 315.859 217.407 314.492C217.792 312.959 218.982 311.769 220.515 311.384C222.295 310.937 223 310.082 223 308.369C223 307.053 223.482 305.977 224.071 305.977C225.456 305.977 228 303.433 228 302.048C228 301.459 229.125 300.977 230.5 300.977C231.875 300.977 233 300.576 233 300.085C233 299.595 234.125 298.911 235.5 298.566C236.875 298.221 238 297.503 238 296.97C238 296.437 239.8 295.713 242 295.361C244.2 295.009 246 294.329 246 293.849C246 293.369 247.763 292.977 249.917 292.977C252.143 292.977 254.012 292.442 254.246 291.738C254.543 290.848 258.929 290.395 269.83 290.129C278.173 289.926 285 289.358 285 288.868C285 288.378 286.35 287.977 288 287.977C289.65 287.977 291 287.495 291 286.906C291 285.521 293.544 282.977 294.929 282.977C295.518 282.977 296 283.427 296 283.977C296 284.527 296.675 284.977 297.5 284.977C298.325 284.977 299 284.567 299 284.065C299 283.563 300.798 282.849 302.995 282.478C305.192 282.107 307.243 281.392 307.554 280.89C307.864 280.388 309.843 279.977 311.952 279.977C314.438 279.977 315.988 279.449 316.362 278.477C316.723 277.536 318.252 276.977 320.469 276.977C322.411 276.977 324 276.527 324 275.977C324 275.427 325.8 274.977 328 274.977C330.889 274.977 332 274.56 332 273.477C332 272.394 333.111 271.977 336 271.977C338.2 271.977 340 271.614 340 271.169C340 269.944 347.315 266.977 350.336 266.977H353V251.477C353 241.81 353.376 235.977 354 235.977C354.55 235.977 355 234.852 355 233.477C355 232.102 354.55 230.977 354 230.977C353.45 230.977 353 229.852 353 228.477C353 227.102 353.415 225.977 353.922 225.977C354.45 225.977 354.984 215.508 355.172 201.439C355.41 183.651 355.832 176.697 356.708 176.157C357.556 175.633 358.059 169.622 358.397 155.944C359.254 121.322 360.522 100.636 361.812 100.206C362.669 99.9208 363 94.9439 363 82.3618C363 67.7748 363.246 64.8198 364.5 64.3388C365.743 63.8608 366 61.1298 366 48.3698C366 35.3538 365.768 32.9768 364.5 32.9768C363.567 32.9768 363 32.0328 363 30.4768C363 29.1018 362.518 27.9768 361.929 27.9768C361.339 27.9768 360.23 27.4148 359.463 26.7268C355.904 23.5348 354.948 22.9768 353.042 22.9768C351.919 22.9768 351 22.5268 351 21.9768C351 21.4128 348.167 20.9768 344.5 20.9768C340.833 20.9768 338 21.4128 338 21.9768C338 22.5268 336.875 22.9768 335.5 22.9768C333.944 22.9768 333 23.5438 333 24.4768C333 25.3018 332.325 25.9768 331.5 25.9768C330.659 25.9768 330 26.8688 330 28.0078C330 29.1258 329.325 30.2988 328.5 30.6148C327.401 31.0368 327 32.7678 327 37.0838C327 40.3458 326.554 42.9768 326 42.9768C325.45 42.9768 325 45.4198 325 48.4058C325 51.8978 324.465 54.3688 323.5 55.3338C322.561 56.2728 322 58.7308 322 61.9058C322 64.6948 321.55 66.9768 321 66.9768C320.436 66.9768 320 69.8098 320 73.4768C320 78.5878 319.679 79.9768 318.5 79.9768C317.321 79.9768 317 81.3658 317 86.4768C317 91.5878 316.679 92.9768 315.5 92.9768C314.3 92.9768 314 94.4768 314 100.477C314 104.81 313.578 107.977 313 107.977C312.45 107.977 312 109.97 312 112.406C312 115.009 311.382 117.452 310.5 118.334C309.496 119.338 309 121.842 309 125.906C309 129.245 308.615 131.977 308.144 131.977C307.674 131.977 307.026 135.456 306.704 139.707C306.383 143.959 305.643 147.596 305.06 147.79C304.472 147.986 304 150.792 304 154.092C304 158.456 303.601 160.193 302.5 160.615C301.383 161.044 301 162.824 301 167.584C301 171.179 300.562 173.977 300 173.977C299.444 173.977 299 176.654 299 180.008C299 184.447 298.604 186.192 297.5 186.615C296.354 187.055 296 188.935 296 194.584C296 198.65 295.602 201.977 295.116 201.977C294.631 201.977 294.041 204.986 293.807 208.663C293.556 212.602 292.892 215.513 292.191 215.747C291.536 215.965 291 217.681 291 219.56C291 221.931 290.541 222.977 289.5 222.977C288.604 222.977 288 223.897 288 225.261C288 228.342 283.334 230.977 277.878 230.977C274.448 230.977 273.096 230.432 271.282 228.321C270.027 226.861 269 225.061 269 224.321C269 223.582 268.55 222.977 268 222.977C267.45 222.977 267 221.675 267 220.084C267 218.435 266.355 216.943 265.5 216.615C264.417 216.2 264 214.503 264 210.508C264 207.466 263.55 204.977 263 204.977C262.397 204.977 262 200.81 262 194.477C262 185.81 261.738 183.977 260.5 183.977C259.301 183.977 259 182.486 259 176.56C259 171.943 258.574 169.002 257.872 168.768C256.701 168.377 255.238 158.93 254.343 145.982C254.058 141.86 253.325 138.178 252.714 137.8C252.103 137.423 251.415 134.158 251.185 130.545C250.955 126.933 250.369 123.977 249.884 123.977C249.398 123.977 249 120.57 249 116.406C249 111.009 248.569 108.403 247.5 107.334C246.478 106.312 246 103.787 246 99.4058C246 95.8698 245.609 92.9768 245.13 92.9768C243.985 92.9768 242.768 84.8138 242.943 78.3118C243.02 75.4708 242.614 72.8568 242.041 72.5028C241.469 72.1488 241 68.5588 241 64.5248C241 58.9278 240.645 57.0548 239.5 56.6148C238.396 56.1918 238 54.4468 238 50.0078C238 46.6538 237.556 43.9768 237 43.9768C236.417 43.9768 236 40.6438 236 35.9768C236 29.5328 235.708 27.9768 234.5 27.9768C233.321 27.9768 233 26.5878 233 21.4768C233 16.3658 232.679 14.9768 231.5 14.9768C230.675 14.9768 230 14.5088 230 13.9378C230 12.5568 222.454 4.97683 221.078 4.97683C220.485 4.97683 220 4.30183 220 3.47683C220 2.54383 219.056 1.97683 217.5 1.97683C216.125 1.97683 215 1.52683 215 0.976826C215 -0.458174 212.277 -0.259174 211.583 1.22683C211.117 2.22683 210.883 2.22683 210.417 1.22683C209.721 -0.264174 208 -0.442174 208 0.976826ZM215 5.97683C215 6.52683 214.55 6.97683 214 6.97683C213.45 6.97683 213 6.52683 213 5.97683C213 5.42683 213.45 4.97683 214 4.97683C214.55 4.97683 215 5.42683 215 5.97683ZM220.15 8.47683C220.15 8.99883 219.666 9.58783 219.075 9.78483C218.484 9.98183 218 9.39383 218 8.47683C218 7.55983 218.484 6.97183 219.075 7.16883C219.666 7.36583 220.15 7.95483 220.15 8.47683ZM210 10.9768C210 11.5268 209.55 11.9768 209 11.9768C208.45 11.9768 208 11.5268 208 10.9768C208 10.4268 208.45 9.97683 209 9.97683C209.55 9.97683 210 10.4268 210 10.9768ZM225 12.4768C225 13.8518 224.55 14.9768 224 14.9768C223.45 14.9768 223 13.8518 223 12.4768C223 11.1018 223.45 9.97683 224 9.97683C224.55 9.97683 225 11.1018 225 12.4768ZM215 15.9768C215 16.5268 214.55 16.9768 214 16.9768C213.45 16.9768 213 16.5268 213 15.9768C213 15.4268 213.45 14.9768 214 14.9768C214.55 14.9768 215 15.4268 215 15.9768ZM77 67.9768C77 68.5268 76.55 68.9768 76 68.9768C75.45 68.9768 75 68.5268 75 67.9768C75 67.4268 75.45 66.9768 76 66.9768C76.55 66.9768 77 67.4268 77 67.9768ZM93 78.9768C93 79.5268 92.55 79.9768 92 79.9768C91.45 79.9768 91 79.5268 91 78.9768C91 78.4268 91.45 77.9768 92 77.9768C92.55 77.9768 93 78.4268 93 78.9768ZM95 122.977C95 123.527 94.55 123.977 94 123.977C93.45 123.977 93 123.527 93 122.977C93 122.427 93.45 121.977 94 121.977C94.55 121.977 95 122.427 95 122.977ZM93 127.977C93 128.527 92.55 128.977 92 128.977C91.45 128.977 91 128.527 91 127.977C91 127.427 91.45 126.977 92 126.977C92.55 126.977 93 127.427 93 127.977ZM38 182.977C38 183.527 37.55 183.977 37 183.977C36.45 183.977 36 183.527 36 182.977C36 182.427 36.45 181.977 37 181.977C37.55 181.977 38 182.427 38 182.977ZM12 184.977C12 185.527 11.55 185.977 11 185.977C10.45 185.977 10 185.527 10 184.977C10 184.427 10.45 183.977 11 183.977C11.55 183.977 12 184.427 12 184.977ZM20 192.977C20 193.527 19.55 193.977 19 193.977C18.45 193.977 18 193.527 18 192.977C18 192.427 18.45 191.977 19 191.977C19.55 191.977 20 192.427 20 192.977ZM163 192.977C163 193.527 162.55 193.977 162 193.977C161.45 193.977 161 193.527 161 192.977C161 192.427 161.45 191.977 162 191.977C162.55 191.977 163 192.427 163 192.977ZM54 200.977C54 201.527 53.55 201.977 53 201.977C52.45 201.977 52 201.527 52 200.977C52 200.427 52.45 199.977 53 199.977C53.55 199.977 54 200.427 54 200.977ZM259 208.977C259 209.527 258.55 209.977 258 209.977C257.45 209.977 257 209.527 257 208.977C257 208.427 257.45 207.977 258 207.977C258.55 207.977 259 208.427 259 208.977ZM262 223.977C262 224.527 261.55 224.977 261 224.977C260.45 224.977 260 224.527 260 223.977C260 223.427 260.45 222.977 261 222.977C261.55 222.977 262 223.427 262 223.977ZM137 227.477C137 228.302 136.55 228.977 136 228.977C135.45 228.977 135 228.302 135 227.477C135 226.652 135.45 225.977 136 225.977C136.55 225.977 137 226.652 137 227.477ZM212 231.977C212 232.527 211.55 232.977 211 232.977C210.45 232.977 210 232.527 210 231.977C210 231.427 210.45 230.977 211 230.977C211.55 230.977 212 231.427 212 231.977ZM186 234.977C186 235.527 185.55 235.977 185 235.977C184.45 235.977 184 235.527 184 234.977C184 234.427 184.45 233.977 185 233.977C185.55 233.977 186 234.427 186 234.977ZM207 236.977C207 237.527 206.55 237.977 206 237.977C205.45 237.977 205 237.527 205 236.977C205 236.427 205.45 235.977 206 235.977C206.55 235.977 207 236.427 207 236.977ZM514.679 240.371C514.385 241.137 512.199 242.008 509.822 242.306C502.729 243.195 499 244.151 499 245.079C499 245.56 497.2 246.241 495 246.593C492.8 246.945 491 247.625 491 248.105C491 248.585 489.875 248.977 488.5 248.977C486.944 248.977 486 249.544 486 250.477C486 251.53 484.937 251.977 482.429 251.977C480.464 251.977 478.182 252.652 477.357 253.477C476.532 254.302 474.539 254.977 472.929 254.977C471.318 254.977 470 255.427 470 255.977C470 256.527 468.875 256.977 467.5 256.977C466.125 256.977 465 257.418 465 257.958C465 258.497 463.875 259.221 462.5 259.566C459.817 260.24 459.217 261.531 461.25 262.257C461.977 262.516 462.129 263.074 461.613 263.59C461.097 264.106 460.539 263.954 460.28 263.227C459.61 261.35 452 261.58 452 263.477C452 264.302 451.325 264.977 450.5 264.977C449.675 264.977 449 265.422 449 265.965C449 266.509 447.2 267.241 445 267.593C442.8 267.945 441 268.625 441 269.105C441 269.585 439.875 269.977 438.5 269.977C436.944 269.977 436 270.544 436 271.477C436 272.41 435.056 272.977 433.5 272.977C432.125 272.977 431 273.427 431 273.977C431 274.527 429.875 274.977 428.5 274.977C426.944 274.977 426 275.544 426 276.477C426 277.56 424.889 277.977 422 277.977C419.8 277.977 418 278.427 418 278.977C418 279.527 418.675 279.977 419.5 279.977C421.293 279.977 421.48 281.562 419.809 282.595C419.154 283 418.441 282.801 418.226 282.154C417.75 280.727 413 280.566 413 281.977C413 282.527 411.875 282.977 410.5 282.977C408.944 282.977 408 283.544 408 284.477C408 285.302 407.325 285.977 406.5 285.977C405.675 285.977 405 286.427 405 286.977C405 287.527 403.425 287.977 401.5 287.977C399.056 287.977 398 288.429 398 289.477C398 290.302 397.325 290.977 396.5 290.977C395.675 290.977 395 291.378 395 291.869C395 292.359 393.875 293.043 392.5 293.388C391.125 293.733 390 294.457 390 294.996C390 295.536 388.923 295.977 387.607 295.977C386.291 295.977 384.955 296.652 384.638 297.477C384.277 298.418 382.748 298.977 380.531 298.977C378.589 298.977 377 299.427 377 299.977C377 300.527 376.518 300.977 375.929 300.977C375.339 300.977 374.182 301.652 373.357 302.477C372.532 303.302 370.539 303.977 368.929 303.977C366.992 303.977 366 304.485 366 305.477C366 306.401 365.062 306.977 363.559 306.977C362.216 306.977 360.84 307.427 360.5 307.977C360.16 308.527 358.334 308.977 356.441 308.977C354.049 308.977 353 309.434 353 310.477C353 311.477 352 311.977 350 311.977C348.35 311.977 347 312.427 347 312.977C347 313.527 346.068 313.977 344.929 313.977C343.789 313.977 342.182 314.652 341.357 315.477C340.532 316.302 338.127 316.977 336.012 316.977C333.897 316.977 332.002 317.471 331.801 318.075C331.599 318.679 329.312 319.413 326.717 319.705C324.123 319.998 322 320.629 322 321.107C322 321.586 320.2 321.977 318 321.977C315.111 321.977 314 322.394 314 323.477C314 324.56 312.889 324.977 310 324.977C307.8 324.977 306 325.427 306 325.977C306 326.527 304.473 326.977 302.607 326.977C300.513 326.977 298.994 327.551 298.638 328.477C298.209 329.596 296.424 329.977 291.615 329.977C288.068 329.977 285.017 330.41 284.833 330.939C284.65 331.467 278.972 332.211 272.215 332.591C265.458 332.97 259.694 333.663 259.406 334.129C259.118 334.595 258.009 334.977 256.941 334.977C255.873 334.977 255 335.652 255 336.477C255 337.302 254.325 337.977 253.5 337.977C250.812 337.977 251.549 345.655 254.5 348.389C255.875 349.664 257 351.217 257 351.842C257 352.466 257.675 352.977 258.5 352.977C259.325 352.977 260 353.427 260 353.977C260 354.527 260.837 354.977 261.86 354.977C262.883 354.977 264.565 356.102 265.597 357.477C266.786 359.059 268.463 359.977 270.166 359.977C271.646 359.977 273.532 360.652 274.357 361.477C275.182 362.302 276.757 362.977 277.857 362.977C278.957 362.977 280.532 363.652 281.357 364.477C282.296 365.416 284.754 365.977 287.929 365.977C290.718 365.977 293 366.427 293 366.977C293 367.613 301 367.977 315 367.977C329 367.977 337 367.613 337 366.977C337 366.353 342.833 365.977 352.5 365.977C362.167 365.977 368 365.601 368 364.977C368 364.427 369.35 363.977 371 363.977C372.65 363.977 374 364.427 374 364.977C374 365.56 377.333 365.977 382 365.977C386.563 365.977 390 366.398 390 366.958C390 367.497 391.125 368.221 392.5 368.566C393.875 368.911 395 369.595 395 370.085C395 370.576 395.675 370.977 396.5 370.977C397.325 370.977 398 371.397 398 371.91C398 372.423 398.899 373.128 399.998 373.476C401.096 373.825 402.27 375.205 402.606 376.544C402.942 377.882 403.618 378.977 404.108 378.977C404.599 378.977 405 385.502 405 393.477C405 402.477 404.621 407.977 404 407.977C403.45 407.977 403 408.891 403 410.008C403 411.126 402.325 412.299 401.5 412.615C400.582 412.968 400 414.484 400 416.525C400 418.359 399.55 420.137 399 420.477C398.45 420.817 398 421.983 398 423.067C398 424.152 397.325 425.299 396.5 425.615C395.675 425.932 395 427.268 395 428.584C395 430.044 394.415 430.977 393.5 430.977C392.417 430.977 392 432.088 392 434.977C392 437.177 391.559 438.977 391.019 438.977C390.48 438.977 389.756 440.102 389.411 441.477C389.066 442.852 388.382 443.977 387.892 443.977C387.401 443.977 387 444.652 387 445.477C387 446.302 386.55 446.977 386 446.977C385.45 446.977 385 448.102 385 449.477C385 450.852 385.45 451.977 386 451.977C386.55 451.977 387 452.427 387 452.977C387 453.527 386.325 453.977 385.5 453.977C384.675 453.977 384 453.527 384 452.977C384 452.427 383.55 451.977 383 451.977C381.557 451.977 381.767 454.728 383.25 455.253C384.069 455.544 383.552 456.59 381.75 458.289C380.237 459.715 379 461.16 379 461.501C379 461.841 378.438 462.747 377.75 463.514C374.782 466.823 374 467.954 374 468.935C374 469.508 373.599 469.977 373.108 469.977C372.618 469.977 371.934 471.102 371.589 472.477C371.244 473.852 370.52 474.977 369.981 474.977C369.441 474.977 369 476.102 369 477.477C369 479.033 368.433 479.977 367.5 479.977C366.675 479.977 366 480.652 366 481.477C366 482.302 365.55 482.977 365 482.977C364.45 482.977 364 483.652 364 484.477C364 485.302 363.325 485.977 362.5 485.977C361.567 485.977 361 486.921 361 488.477C361 489.852 360.501 490.977 359.892 490.977C359.211 490.977 359.003 492.039 359.352 493.727C359.665 495.24 359.676 495.915 359.377 495.227C358.731 493.742 356 493.54 356 494.977C356 495.527 355.325 495.977 354.5 495.977C353.556 495.977 353 496.929 353 498.548C353 499.963 352.438 501.747 351.75 502.514C348.782 505.823 348 506.954 348 507.935C348 508.508 347.55 508.977 347 508.977C346.45 508.977 346 509.652 346 510.477C346 511.302 345.374 511.977 344.608 511.977C343.843 511.977 342.934 513.102 342.589 514.477C342.244 515.852 341.52 516.977 340.981 516.977C340.441 516.977 340 517.459 340 518.048C340 519.381 337.476 521.977 336.18 521.977C335.65 521.977 334.96 522.998 334.647 524.247C334.334 525.495 333.16 527.502 332.039 528.705C330.917 529.909 330 531.362 330 531.935C330 532.508 329.325 532.977 328.5 532.977C327.567 532.977 327 533.921 327 535.477C327 536.852 326.58 537.977 326.067 537.977C325.554 537.977 324.856 538.854 324.516 539.926C324.176 540.998 323.065 542.139 322.048 542.462C321.031 542.785 319.921 544.158 319.58 545.513C319.24 546.868 318.52 547.977 317.981 547.977C317.441 547.977 317 548.652 317 549.477C317 550.302 316.325 550.977 315.5 550.977C314.675 550.977 314 551.652 314 552.477C314 553.302 314.35 553.977 314.778 553.977C315.823 553.977 319 550.206 319 548.966C319 548.422 319.675 547.977 320.5 547.977C321.325 547.977 322 548.441 322 549.008C322 549.576 321.325 550.299 320.5 550.615C319.675 550.932 319 552.327 319 553.715C319 556.041 318.726 556.194 315.5 555.671C313.007 555.266 312 555.476 312 556.4C312 557.113 310.875 558.542 309.5 559.574C308.125 560.607 307 562.02 307 562.714C307 563.409 306.325 563.977 305.5 563.977C304.675 563.977 304 564.666 304 565.508C304 566.351 303.325 567.299 302.5 567.615C301.675 567.932 301 568.818 301 569.584C301 570.35 300.55 570.977 300 570.977C298.557 570.977 298.767 573.727 300.25 574.257C300.977 574.516 301.129 575.074 300.613 575.59C300.097 576.106 299.539 575.954 299.28 575.227C298.65 573.465 296 573.667 296 575.477C296 576.302 295.599 576.977 295.108 576.977C294.618 576.977 293.934 578.102 293.589 579.477C293.244 580.852 292.52 581.977 291.981 581.977C291.441 581.977 291 582.652 291 583.477C291 584.302 290.518 584.977 289.929 584.977C288.403 584.977 286.382 587.199 285.565 589.774C285.18 590.985 284.446 591.977 283.933 591.977C283.42 591.977 283 592.652 283 593.477C283 594.302 282.55 594.977 282 594.977C281.45 594.977 281 595.652 281 596.477C281 597.302 280.325 597.977 279.5 597.977C278.675 597.977 278 598.427 278 598.977C278 599.527 277.325 599.977 276.5 599.977C275.567 599.977 275 600.921 275 602.477C275 603.852 274.55 604.977 274 604.977C273.45 604.977 273 605.652 273 606.477C273 607.302 273.45 607.977 274 607.977C274.55 607.977 275 608.427 275 608.977C275 609.527 274.325 609.977 273.5 609.977C272.675 609.977 272 609.527 272 608.977C272 608.427 271.55 607.977 271 607.977C269.557 607.977 269.767 610.727 271.25 611.257C271.938 611.502 272.138 612.089 271.696 612.561C271.253 613.033 270.431 612.757 269.869 611.948C269.085 610.818 268.729 610.771 268.335 611.745C268.052 612.442 267.187 613.648 266.411 614.423C265.635 615.199 265 616.253 265 616.765C265 617.278 263.875 618.542 262.5 619.574C261.123 620.608 260 622.468 260 623.714C260 625.059 259.391 625.977 258.5 625.977C257.675 625.977 257 626.462 257 627.054C257 628.453 251.476 633.977 250.077 633.977C248.569 633.977 248.725 638.712 250.25 639.257C250.977 639.516 251.129 640.074 250.613 640.59C250.097 641.106 249.539 640.954 249.28 640.227C248.656 638.48 247 638.662 247 640.477C247 641.302 247.45 641.977 248 641.977C248.55 641.977 249 642.427 249 642.977C249 643.527 248.325 643.977 247.5 643.977C246.675 643.977 246 643.527 246 642.977C246 642.427 245.55 641.977 245 641.977C244.45 641.977 244 642.938 244 644.112C244 645.287 242.875 647.29 241.5 648.565C238.825 651.044 238.204 654.439 240.25 655.394C241.25 655.86 241.25 656.094 240.25 656.56C238.448 657.401 238.66 661.977 240.5 661.977C241.433 661.977 242 662.921 242 664.477C242 665.852 242.45 666.977 243 666.977C243.55 666.977 244 667.544 244 668.236C244 669.946 247.344 671.917 249.635 671.557C250.661 671.396 250.938 671.457 250.25 671.694C247.953 672.484 248.902 674.977 251.5 674.977C253.056 674.977 254 675.544 254 676.477C254 677.612 255.227 677.977 259.042 677.977C264.136 677.977 264.742 677.686 269.955 672.727C271.545 671.214 273.331 669.977 273.923 669.977C274.515 669.977 275 669.495 275 668.906C275 667.521 277.544 664.977 278.929 664.977C279.518 664.977 280 664.302 280 663.477C280 662.652 280.441 661.977 280.981 661.977C281.52 661.977 282.244 660.852 282.589 659.477C283.04 657.682 283.891 656.977 285.608 656.977C287.493 656.977 288 656.447 288 654.477C288 652.921 288.567 651.977 289.5 651.977C290.325 651.977 291 651.302 291 650.477C291 649.652 291.696 648.977 292.548 648.977C293.399 648.977 295.138 647.852 296.412 646.477C297.687 645.102 299.24 643.977 299.865 643.977C300.489 643.977 301 643.302 301 642.477C301 641.652 301.441 640.977 301.981 640.977C302.52 640.977 303.244 639.852 303.589 638.477C303.982 636.913 304.925 635.977 306.108 635.977C307.149 635.977 308 635.371 308 634.63C308 632.688 311.129 629.38 313.75 628.553C314.987 628.162 316 627.423 316 626.91C316 626.397 316.675 625.977 317.5 625.977C318.325 625.977 319 625.495 319 624.906C319 624.316 319.563 623.207 320.25 622.44C323.171 619.183 324 618.009 324 617.128C324 616.614 325.125 615.911 326.5 615.566C327.981 615.195 329 614.222 329 613.18C329 611.176 331.784 608.498 334.893 607.511C336.052 607.143 337 606.423 337 605.91C337 605.397 337.675 604.977 338.5 604.977C339.325 604.977 340 604.495 340 603.906C340 602.521 342.544 599.977 343.929 599.977C344.518 599.977 345 599.093 345 598.011C345 595.953 350.182 589.977 351.966 589.977C352.535 589.977 353 589.302 353 588.477C353 587.652 353.675 586.977 354.5 586.977C355.325 586.977 356 586.557 356 586.044C356 585.531 356.9 584.826 358 584.477C359.1 584.128 360 583.198 360 582.41C360 581.622 360.645 580.977 361.433 580.977C362.221 580.977 363.151 580.077 363.5 578.977C363.849 577.877 364.554 576.977 365.067 576.977C365.58 576.977 366 576.302 366 575.477C366 574.652 366.675 573.977 367.5 573.977C368.325 573.977 369 573.527 369 572.977C369 572.427 370.8 570.177 373 567.977C375.2 565.777 377.45 563.977 378 563.977C378.55 563.977 379 563.302 379 562.477C379 561.652 379.675 560.977 380.5 560.977C381.325 560.977 382 560.497 382 559.91C382 559.323 383.575 557.357 385.5 555.542C387.425 553.726 389 551.731 389 551.109C389 550.486 389.482 549.977 390.071 549.977C391.456 549.977 394 547.433 394 546.048C394 545.459 394.675 544.977 395.5 544.977C396.325 544.977 397 544.378 397 543.646C397 542.914 398.125 541.713 399.5 540.977C400.875 540.241 402 539.314 402 538.916C402 538.519 403.125 537.911 404.5 537.566C405.875 537.221 407 536.497 407 535.958C407 535.418 408.077 534.977 409.393 534.977C410.709 534.977 412.057 534.271 412.388 533.408C412.813 532.3 413.653 532.045 415.245 532.54C416.485 532.926 417.65 533.632 417.833 534.109C418.017 534.586 418.598 534.977 419.125 534.977C419.652 534.977 421.033 535.861 422.193 536.942C423.995 538.621 424.284 539.97 424.172 546.192C424.022 554.556 423.243 558.977 421.921 558.977C421.414 558.977 421 560.102 421 561.477C421 563.033 420.433 563.977 419.5 563.977C418.567 563.977 418 564.921 418 566.477C418 567.852 417.55 568.977 417 568.977C416.45 568.977 416 570.102 416 571.477C416 573.033 415.433 573.977 414.5 573.977C413.417 573.977 413 575.088 413 577.977C413 580.177 412.599 581.977 412.108 581.977C411.618 581.977 410.934 583.102 410.589 584.477C410.244 585.852 409.52 586.977 408.981 586.977C408.441 586.977 408 588.102 408 589.477C408 591.033 407.433 591.977 406.5 591.977C405.51 591.977 405 592.968 405 594.894C405 596.498 404.438 598.039 403.75 598.318C402.789 598.707 402.825 599.052 403.905 599.805C405.056 600.609 404.853 601.209 402.782 603.132C401.393 604.422 399.417 607.839 398.393 610.727C397.369 613.615 396.186 615.977 395.765 615.977C395.344 615.977 395 617.102 395 618.477C395 620.033 394.433 620.977 393.5 620.977C392.567 620.977 392 621.921 392 623.477C392 624.852 391.55 625.977 391 625.977C390.45 625.977 390 627.116 390 628.508C390 629.901 389.325 631.299 388.5 631.615C387.574 631.971 387 633.49 387 635.584C387 637.45 386.586 638.977 386.079 638.977C385.573 638.977 384.862 640.327 384.5 641.977C384.138 643.627 383.427 644.977 382.921 644.977C382.414 644.977 382 645.891 382 647.008C382 648.126 381.325 649.299 380.5 649.615C379.675 649.932 379 651.268 379 652.584C379 653.9 378.55 654.977 378 654.977C376.546 654.977 376.771 659.729 378.25 660.257C378.977 660.516 379.129 661.074 378.613 661.59C378.097 662.106 377.539 661.954 377.28 661.227C377.034 660.539 376.196 659.977 375.417 659.977C374.431 659.977 374 661.193 374 663.977C374 666.177 373.559 667.977 373.019 667.977C372.48 667.977 371.756 669.102 371.411 670.477C371.066 671.852 370.382 672.977 369.892 672.977C369.401 672.977 369 674.102 369 675.477C369 677.033 368.433 677.977 367.5 677.977C366.567 677.977 366 678.921 366 680.477C366 681.852 365.55 682.977 365 682.977C364.45 682.977 364 684.295 364 685.906C364 687.516 363.325 689.509 362.5 690.334C361.675 691.159 361 692.766 361 693.906C361 695.045 360.586 695.977 360.079 695.977C359.573 695.977 358.862 697.327 358.5 698.977C358.138 700.627 357.427 701.977 356.921 701.977C356.414 701.977 356 702.891 356 704.008C356 705.126 355.325 706.299 354.5 706.615C353.675 706.932 353 708.268 353 709.584C353 710.9 352.55 711.977 352 711.977C351.45 711.977 351 713.07 351 714.406C351 715.741 350.325 717.509 349.5 718.334C348.675 719.159 348 720.991 348 722.406C348 723.82 347.55 724.977 347 724.977C346.45 724.977 346 726.07 346 727.406C346 728.741 345.325 730.509 344.5 731.334C343.675 732.159 343 733.78 343 734.937C343 736.094 342.325 737.299 341.5 737.615C340.354 738.055 340 739.935 340 745.584C340 749.65 340.401 752.977 340.892 752.977C341.382 752.977 342.066 754.102 342.411 755.477C342.756 756.852 343.48 757.977 344.019 757.977C344.559 757.977 345 758.604 345 759.37C345 760.136 345.675 761.022 346.5 761.339C347.325 761.655 348 762.828 348 763.946C348 765.649 348.646 765.977 352 765.977C354.889 765.977 356 766.394 356 767.477C356 768.61 357.222 768.977 361 768.977C364.778 768.977 366 768.61 366 767.477C366 766.625 366.897 765.977 368.077 765.977C370.234 765.977 376 760.939 376 759.054C376 758.462 376.675 757.977 377.5 757.977C378.433 757.977 379 757.033 379 755.477C379 754.102 379.45 752.977 380 752.977C380.55 752.977 381 751.852 381 750.477C381 748.921 381.567 747.977 382.5 747.977C383.433 747.977 384 747.033 384 745.477C384 744.102 384.401 742.977 384.892 742.977C385.382 742.977 386.066 741.852 386.411 740.477C386.756 739.102 387.48 737.977 388.019 737.977C388.559 737.977 389 737.302 389 736.477C389 735.652 389.675 734.977 390.5 734.977C391.433 734.977 392 734.033 392 732.477C392 731.102 392.392 729.977 392.872 729.977C393.352 729.977 394.032 728.177 394.384 725.977C394.736 723.777 395.468 721.977 396.012 721.977C396.555 721.977 397 721.302 397 720.477C397 719.652 397.441 718.977 397.981 718.977C398.52 718.977 399.244 717.852 399.589 716.477C399.934 715.102 400.618 713.977 401.108 713.977C401.599 713.977 402 712.852 402 711.477C402 709.921 402.567 708.977 403.5 708.977C404.433 708.977 405 708.033 405 706.477C405 705.102 405.45 703.977 406 703.977C406.55 703.977 407 703.302 407 702.477C407 701.652 407.675 700.977 408.5 700.977C409.433 700.977 410 700.033 410 698.477C410 697.102 410.401 695.977 410.892 695.977C411.382 695.977 412.066 694.852 412.411 693.477C412.756 692.102 413.48 690.977 414.019 690.977C415.459 690.977 415.217 686.221 413.75 685.697C413.023 685.438 412.871 684.88 413.387 684.364C413.903 683.848 414.461 684 414.72 684.727C415.35 686.489 418 686.287 418 684.477C418 683.652 418.45 682.977 419 682.977C419.55 682.977 420 681.852 420 680.477C420 678.921 420.567 677.977 421.5 677.977C422.444 677.977 423 677.025 423 675.406C423 673.991 423.563 672.207 424.25 671.44C427.218 668.131 428 667 428 666.019C428 665.446 428.675 664.977 429.5 664.977C430.558 664.977 431 663.906 431 661.342C431 658.748 431.717 657.042 433.5 655.389C434.875 654.115 436 652.151 436 651.025C436 649.898 436.45 648.977 437 648.977C437.55 648.977 438 648.288 438 647.446C438 646.603 438.675 645.655 439.5 645.339C440.325 645.022 441 643.911 441 642.87C441 641.829 441.675 640.977 442.5 640.977C443.433 640.977 444 640.033 444 638.477C444 637.102 444.45 635.977 445 635.977C445.55 635.977 446 635.063 446 633.946C446 632.828 446.675 631.655 447.5 631.339C448.325 631.022 449 629.686 449 628.37C449 627.054 449.45 625.977 450 625.977C450.55 625.977 451 625.302 451 624.477C451 623.652 451.675 622.977 452.5 622.977C453.422 622.977 454 622.04 454 620.548C454 619.213 454.675 617.445 455.5 616.62C456.325 615.795 457 614.638 457 614.048C457 613.459 457.45 612.977 458 612.977C458.55 612.977 459 612.302 459 611.477C459 610.652 459.675 609.977 460.5 609.977C461.433 609.977 462 609.033 462 607.477C462 606.102 462.45 604.977 463 604.977C463.55 604.977 464 603.852 464 602.477C464 600.921 464.567 599.977 465.5 599.977C466.433 599.977 467 599.033 467 597.477C467 595.921 467.567 594.977 468.5 594.977C469.433 594.977 470 594.033 470 592.477C470 591.102 470.45 589.977 471 589.977C471.55 589.977 472 589.302 472 588.477C472 587.652 472.675 586.977 473.5 586.977C474.325 586.977 475 586.302 475 585.477C475 584.652 475.401 583.977 475.892 583.977C476.382 583.977 477.066 582.852 477.411 581.477C477.869 579.651 478.707 578.977 480.519 578.977C481.884 578.977 483 578.495 483 577.906C483 575.997 485.792 573.977 488.429 573.977C490.048 573.977 491 574.533 491 575.477C491 576.302 491.441 576.977 491.981 576.977C492.52 576.977 493.244 578.102 493.589 579.477C493.934 580.852 494.618 581.977 495.108 581.977C495.599 581.977 496 587.827 496 594.977C496 602.127 495.608 607.977 495.128 607.977C494.649 607.977 494.049 613.014 493.796 619.171C493.496 626.446 492.926 630.502 492.167 630.755C491.377 631.018 491 634.51 491 641.56C491 647.29 490.61 651.977 490.134 651.977C489.657 651.977 489.046 656.568 488.776 662.18C488.47 668.537 487.854 672.526 487.142 672.763C486.384 673.016 486 676.621 486 683.489C486 691.351 485.64 694.194 484.5 695.334C483.365 696.469 483 699.287 483 706.906C483 712.445 482.608 716.977 482.128 716.977C481.649 716.977 481.053 723.363 480.803 731.169C480.496 740.796 479.973 745.486 479.175 745.752C477.676 746.252 477.504 768.977 479 768.977C479.55 768.977 480 769.427 480 769.977C480 770.527 479.1 770.977 478 770.977C476.889 770.977 476 771.644 476 772.477C476 773.302 476.45 773.977 477 773.977C477.55 773.977 478 775.102 478 776.477C478 777.852 478.45 778.977 479 778.977C479.55 778.977 480 778.527 480 777.977C480 777.427 480.675 776.977 481.5 776.977C482.325 776.977 483 777.427 483 777.977C483 778.527 482.55 778.977 482 778.977C481.45 778.977 481 779.652 481 780.477C481 781.302 481.45 781.977 482 781.977C482.55 781.977 483 783.065 483 784.395C483 786.699 483.341 786.828 490.25 787.145C494.237 787.328 499.413 787.319 501.75 787.126C505.472 786.819 506 786.477 506 784.376C506 782.91 506.583 781.977 507.5 781.977C508.325 781.977 509 781.302 509 780.477C509 779.652 509.392 778.977 509.872 778.977C510.352 778.977 511.032 777.177 511.384 774.977C511.736 772.777 512.468 770.977 513.012 770.977C513.555 770.977 514 769.852 514 768.477C514 767.102 514.384 765.977 514.852 765.977C515.321 765.977 516.012 761.59 516.387 756.227C516.762 750.865 517.503 746.327 518.034 746.144C518.565 745.96 519 743.584 519 740.862C519 737.387 519.446 735.743 520.5 735.339C521.678 734.887 522 732.852 522 725.87C522 720.608 522.408 716.977 523 716.977C523.564 716.977 524 714.144 524 710.477C524 705.366 524.321 703.977 525.5 703.977C526.708 703.977 527 702.421 527 695.977C527 691.31 527.417 687.977 528 687.977C528.563 687.977 529 685.167 529 681.548C529 677.167 529.478 674.642 530.5 673.62C531.5 672.62 532 670.12 532 666.12C532 662.12 532.5 659.62 533.5 658.62C534.529 657.591 535 655.056 535 650.548C535 646.834 535.435 643.977 536 643.977C536.556 643.977 537 641.3 537 637.946C537 633.507 537.396 631.762 538.5 631.339C540.185 630.692 540.641 623.977 539 623.977C538.45 623.977 538 623.302 538 622.477C538 621.652 538.45 620.977 539 620.977C539.55 620.977 540 619.177 540 616.977C540 614.777 540.386 612.977 540.858 612.977C541.329 612.977 542.009 610.165 542.367 606.727C542.726 603.29 543.465 600.327 544.01 600.144C544.554 599.96 545 598.08 545 595.965C545 593.85 545.675 591.445 546.5 590.62C547.325 589.795 548 587.513 548 585.548C548 583.584 548.401 581.977 548.892 581.977C549.382 581.977 550.066 580.852 550.411 579.477C550.756 578.102 551.48 576.977 552.019 576.977C552.559 576.977 553 576.302 553 575.477C553 574.269 554.556 573.977 561 573.977C566.022 573.977 569 574.376 569 575.048C569 575.638 569.563 576.747 570.25 577.514C573.494 581.131 574 582.065 574 584.435C574 586.028 574.56 586.977 575.5 586.977C576.578 586.977 577 588.079 577 590.894C577 593.138 577.534 594.988 578.25 595.227C579.098 595.509 579.609 598.67 579.839 605.06C580.026 610.239 580.588 614.905 581.089 615.427C581.59 615.95 582 620.975 582 626.594C582 632.713 582.413 636.948 583.03 637.154C583.638 637.356 584.316 643.731 584.685 652.737C585.029 661.119 585.691 667.977 586.155 667.977C586.62 667.977 587 673.634 587 680.548C587 690.39 587.326 693.446 588.5 694.62C589.633 695.753 590 698.564 590 706.12C590 713.675 590.367 716.487 591.5 717.62C592.465 718.585 593 721.056 593 724.548C593 727.534 593.45 729.977 594 729.977C594.55 729.977 595 731.102 595 732.477C595 733.852 595.482 734.977 596.071 734.977C597.456 734.977 600 737.521 600 738.906C600 740.463 614.778 740.304 616.537 738.727C619.846 735.759 620.977 734.977 621.958 734.977C622.543 734.977 623 732.769 623 729.946C623 726.396 623.442 724.745 624.5 724.339C625.765 723.853 626 720.575 626 703.37C626 690.441 626.366 682.977 627 682.977C627.645 682.977 628 671.977 628 651.977C628 631.977 627.645 620.977 627 620.977C626.357 620.977 626 610.81 626 592.477C626 575.933 626.383 563.977 626.914 563.977C627.417 563.977 627.979 558.785 628.164 552.439C628.377 545.139 628.924 540.639 629.654 540.189C630.288 539.797 631.025 536.552 631.291 532.977C631.911 524.633 633.511 517.64 634.906 517.175C635.508 516.974 636 515.53 636 513.965C636 512.4 636.675 510.445 637.5 509.62C638.325 508.795 639 507.188 639 506.048C639 504.909 639.401 503.977 639.892 503.977C640.382 503.977 641.066 502.852 641.411 501.477C641.756 500.102 642.48 498.977 643.019 498.977C643.559 498.977 644 497.627 644 495.977C644 494.327 644.401 492.977 644.892 492.977C645.382 492.977 646.066 491.852 646.411 490.477C646.756 489.102 647.48 487.977 648.019 487.977C648.559 487.977 649 486.852 649 485.477C649 483.921 649.567 482.977 650.5 482.977C651.5 482.977 652 481.977 652 479.977C652 478.327 652.45 476.977 653 476.977C653.55 476.977 654 475.402 654 473.477C654 471.033 654.452 469.977 655.5 469.977C656.583 469.977 657 468.866 657 465.977C657 463.777 657.45 461.977 658 461.977C658.55 461.977 659 460.852 659 459.477C659 457.921 659.567 456.977 660.5 456.977C661.583 456.977 662 455.866 662 452.977C662 450.088 662.417 448.977 663.5 448.977C664.583 448.977 665 447.866 665 444.977C665 442.777 665.45 440.977 666 440.977C666.55 440.977 667 440.063 667 438.946C667 437.828 667.675 436.655 668.5 436.339C669.551 435.935 670 434.297 670 430.87C670 428.179 670.392 425.977 670.872 425.977C671.352 425.977 672.032 424.177 672.384 421.977C672.736 419.777 673.468 417.977 674.012 417.977C674.555 417.977 675 416.659 675 415.048C675 413.438 675.675 411.445 676.5 410.62C677.396 409.724 678 407.279 678 404.548C678 402.034 678.45 399.977 679 399.977C679.55 399.977 680 398.177 680 395.977C680 393.088 680.417 391.977 681.5 391.977C682.72 391.977 683 390.333 683 383.177C683 378.238 683.471 373.906 684.074 373.303C685.934 371.443 683.583 341.418 681.407 339.242C680.633 338.467 680 336.516 680 334.906C680 333.295 679.55 331.977 679 331.977C678.45 331.977 678 330.402 678 328.477C678 326.033 677.548 324.977 676.5 324.977C675.655 324.977 675 324.083 675 322.929C675 321.803 673.875 319.839 672.5 318.565C671.125 317.29 670 315.927 670 315.535C670 313.937 664.008 308.977 662.077 308.977C660.935 308.977 660 308.527 660 307.977C660 307.427 658.861 306.977 657.469 306.977C656.076 306.977 654.678 306.302 654.362 305.477C654.045 304.652 652.709 303.977 651.393 303.977C649.933 303.977 649 303.392 649 302.477C649 301.544 648.056 300.977 646.5 300.977C645.125 300.977 644 300.576 644 300.085C644 299.595 642.875 298.911 641.5 298.566C640.125 298.221 639 297.497 639 296.958C639 296.418 638.325 295.977 637.5 295.977C636.675 295.977 636 295.576 636 295.085C636 294.595 634.875 293.911 633.5 293.566C632.125 293.221 631 292.497 631 291.958C631 291.418 630.325 290.977 629.5 290.977C628.675 290.977 628 290.302 628 289.477C628 288.613 627.096 287.977 625.868 287.977C624.696 287.977 622.304 286.459 620.555 284.604C618.805 282.748 616.389 280.918 615.187 280.536C613.984 280.155 613 279.423 613 278.91C613 278.397 612.325 277.977 611.5 277.977C610.675 277.977 610 277.495 610 276.906C610 275.521 607.456 272.977 606.071 272.977C605.482 272.977 605 272.302 605 271.477C605 270.652 604.518 269.977 603.929 269.977C602.544 269.977 600 267.433 600 266.048C600 265.459 599.325 264.977 598.5 264.977C597.675 264.977 597 264.302 597 263.477C597 262.652 596.518 261.977 595.929 261.977C594.544 261.977 592 259.433 592 258.048C592 257.459 591.518 256.977 590.929 256.977C589.544 256.977 587 254.433 587 253.048C587 252.459 586.325 251.977 585.5 251.977C584.675 251.977 584 251.302 584 250.477C584 249.652 583.518 248.977 582.929 248.977C581.598 248.977 579 246.454 579 245.162C579 244.635 577.763 243.957 576.25 243.655C566.731 241.756 563.461 240.833 563.167 239.962C562.96 239.352 553.764 238.977 539.024 238.977C519.59 238.977 515.116 239.233 514.679 240.371ZM194 242.477C194 243.302 193.55 243.977 193 243.977C192.45 243.977 192 243.302 192 242.477C192 241.652 192.45 240.977 193 240.977C193.55 240.977 194 241.652 194 242.477ZM80 242.977C80 243.527 79.55 243.977 79 243.977C78.45 243.977 78 243.527 78 242.977C78 242.427 78.45 241.977 79 241.977C79.55 241.977 80 242.427 80 242.977ZM199 244.977C199 245.527 198.55 245.977 198 245.977C197.45 245.977 197 245.527 197 244.977C197 244.427 197.45 243.977 198 243.977C198.55 243.977 199 244.427 199 244.977ZM95 250.477C95 251.302 94.55 251.977 94 251.977C93.45 251.977 93 251.302 93 250.477C93 249.652 93.45 248.977 94 248.977C94.55 248.977 95 249.652 95 250.477ZM64 252.977C64 253.527 63.55 253.977 63 253.977C62.45 253.977 62 253.527 62 252.977C62 252.427 62.45 251.977 63 251.977C63.55 251.977 64 252.427 64 252.977ZM103 260.977C103 261.527 102.55 261.977 102 261.977C101.45 261.977 101 261.527 101 260.977C101 260.427 101.45 259.977 102 259.977C102.55 259.977 103 260.427 103 260.977ZM436 275.977C436 276.527 435.325 276.977 434.5 276.977C433.675 276.977 433 276.527 433 275.977C433 275.427 433.675 274.977 434.5 274.977C435.325 274.977 436 275.427 436 275.977ZM82.771 289.165C82.153 291.019 80 291.326 80 289.56C80 288.689 80.712 287.977 81.583 287.977C82.454 287.977 82.989 288.511 82.771 289.165ZM225.729 294.581C225.397 294.913 224.534 294.949 223.813 294.66C223.015 294.341 223.252 294.104 224.417 294.056C225.471 294.013 226.061 294.249 225.729 294.581ZM82 296.977C82 297.527 81.55 297.977 81 297.977C80.45 297.977 80 297.527 80 296.977C80 296.427 80.45 295.977 81 295.977C81.55 295.977 82 296.427 82 296.977ZM218 299.977C218 300.527 217.55 300.977 217 300.977C216.45 300.977 216 300.527 216 299.977C216 299.427 216.45 298.977 217 298.977C217.55 298.977 218 299.427 218 299.977ZM639 299.977C639 300.527 638.55 300.977 638 300.977C637.45 300.977 637 300.527 637 299.977C637 299.427 637.45 298.977 638 298.977C638.55 298.977 639 299.427 639 299.977ZM85 301.977C85 302.527 84.55 302.977 84 302.977C83.45 302.977 83 302.527 83 301.977C83 301.427 83.45 300.977 84 300.977C84.55 300.977 85 301.427 85 301.977ZM225 301.87C225 302.361 224.288 303.036 223.418 303.37C221.183 304.228 221 304.16 221 302.477C221 301.644 221.889 300.977 223 300.977C224.1 300.977 225 301.379 225 301.87ZM699.25 306.58C696.846 309.322 696.376 310.977 698 310.977C698.55 310.977 699 312.054 699 313.37C699 314.686 699.675 316.022 700.5 316.339C701.325 316.655 702 317.828 702 318.946C702 320.063 702.45 320.977 703 320.977C703.55 320.977 704 322.777 704 324.977C704 327.761 704.431 328.977 705.417 328.977C706.196 328.977 707.034 328.415 707.28 327.727C707.539 327 708.097 326.848 708.613 327.364C709.129 327.88 708.977 328.438 708.25 328.697C706.766 329.227 706.557 334.663 708.003 335.145C709.536 335.656 711.25 351.028 711.329 364.977C711.404 378.002 709.346 396.977 707.859 396.977C707.387 396.977 707 398.777 707 400.977C707 403.866 706.583 404.977 705.5 404.977C704.67 404.977 704 405.865 704 406.966C704 409.301 706.888 412.977 708.722 412.977C709.425 412.977 710 413.427 710 413.977C710 414.527 710.9 414.077 712 412.977C713.1 411.877 714 410.302 714 409.477C714 408.652 714.675 407.977 715.5 407.977C716.5 407.977 717 406.977 717 404.977C717 403.327 717.385 401.977 717.855 401.977C718.325 401.977 718.983 398.72 719.317 394.74C719.65 390.759 720.391 387.347 720.962 387.156C721.637 386.931 722 379.133 722 364.822C722 346.611 721.742 342.577 720.5 341.334C719.572 340.407 719 337.953 719 334.906C719 332.195 718.55 329.977 718 329.977C717.45 329.977 717 328.177 717 325.977C717 323.088 716.583 321.977 715.5 321.977C714.567 321.977 714 321.033 714 319.477C714 318.102 713.555 316.977 713.012 316.977C712.468 316.977 711.736 315.177 711.384 312.977C711.032 310.777 710.352 308.977 709.872 308.977C709.392 308.977 709 308.302 709 307.477C709 306.652 708.325 305.977 707.5 305.977C706.675 305.977 706 305.527 706 304.977C706 302.99 701.449 304.071 699.25 306.58ZM742.25 313.473C740.763 315.162 740.569 320.977 742 320.977C742.55 320.977 743 322.777 743 324.977C743 327.866 743.417 328.977 744.5 328.977C745.578 328.977 746 330.079 746 332.894C746 335.067 746.538 336.99 747.209 337.213C749.934 338.122 749.786 385.882 747.055 386.792C746.475 386.985 746 389.356 746 392.06C746 395.764 745.63 396.977 744.5 396.977C743.417 396.977 743 398.088 743 400.977C743 403.177 742.55 404.977 742 404.977C741.45 404.977 741 406.566 741 408.508C741 410.725 740.441 412.254 739.5 412.615C737.334 413.447 737.643 418.62 740 420.977C742.111 423.088 745 423.665 745 421.977C745 421.427 745.675 420.977 746.5 420.977C748.31 420.977 748.512 418.327 746.75 417.697C746.023 417.438 745.871 416.88 746.387 416.364C746.903 415.848 747.461 416 747.72 416.727C748.501 418.914 750 418.072 750 415.446C750 414.053 750.675 412.655 751.5 412.339C752.521 411.947 753 410.349 753 407.339C753 404.328 753.479 402.73 754.5 402.339C755.617 401.91 756 400.13 756 395.37C756 391.775 756.438 388.977 757 388.977C757.563 388.977 758 386.167 758 382.548C758 378.167 758.478 375.642 759.5 374.62C760.673 373.447 761 370.399 761 360.632C761 353.28 760.593 348.007 760.01 347.81C759.465 347.627 758.726 344.665 758.367 341.227C758.009 337.79 757.329 334.977 756.858 334.977C756.386 334.977 756 332.775 756 330.084C756 326.657 755.551 325.019 754.5 324.615C753.559 324.254 753 322.725 753 320.508C753 318.566 752.55 316.977 752 316.977C751.45 316.977 751 316.302 751 315.477C751 314.652 750.325 313.977 749.5 313.977C748.675 313.977 748 313.527 748 312.977C748 311.475 743.681 311.847 742.25 313.473ZM93 315.477C93 316.302 92.55 316.977 92 316.977C91.45 316.977 91 316.302 91 315.477C91 314.652 91.45 313.977 92 313.977C92.55 313.977 93 314.652 93 315.477ZM748 318.56C748 320.326 745.847 320.019 745.229 318.165C745.011 317.511 745.546 316.977 746.417 316.977C747.288 316.977 748 317.689 748 318.56ZM233 390.977C233 391.527 232.55 391.977 232 391.977C231.45 391.977 231 391.527 231 390.977C231 390.427 231.45 389.977 232 389.977C232.55 389.977 233 390.427 233 390.977ZM241 395.977C241 396.527 240.55 396.977 240 396.977C239.45 396.977 239 396.527 239 395.977C239 395.427 239.45 394.977 240 394.977C240.55 394.977 241 395.427 241 395.977ZM714 403.977C714 404.527 713.55 404.977 713 404.977C712.45 404.977 712 404.527 712 403.977C712 403.427 712.45 402.977 713 402.977C713.55 402.977 714 403.427 714 403.977ZM748 405.977C748 406.527 747.55 406.977 747 406.977C746.45 406.977 746 406.527 746 405.977C746 405.427 746.45 404.977 747 404.977C747.55 404.977 748 405.427 748 405.977ZM342 434.977C342 435.527 341.55 435.977 341 435.977C340.45 435.977 340 435.527 340 434.977C340 434.427 340.45 433.977 341 433.977C341.55 433.977 342 434.427 342 434.977ZM665 434.977C665 435.527 664.55 435.977 664 435.977C663.45 435.977 663 435.527 663 434.977C663 434.427 663.45 433.977 664 433.977C664.55 433.977 665 434.427 665 434.977ZM392 452.977C392 453.527 391.55 453.977 391 453.977C390.45 453.977 390 453.527 390 452.977C390 452.427 390.45 451.977 391 451.977C391.55 451.977 392 452.427 392 452.977ZM371 481.977C371 482.527 370.55 482.977 370 482.977C369.45 482.977 369 482.527 369 481.977C369 481.427 369.45 480.977 370 480.977C370.55 480.977 371 481.427 371 481.977ZM353 507.477C353 508.302 352.55 508.977 352 508.977C351.45 508.977 351 508.302 351 507.477C351 506.652 351.45 505.977 352 505.977C352.55 505.977 353 506.652 353 507.477ZM101 513.477C101 514.302 100.55 514.977 100 514.977C99.45 514.977 99 516.975 99 519.418C99 521.861 99.45 524.137 100 524.477C100.55 524.817 101 526.193 101 527.536C101 529.039 101.576 529.977 102.5 529.977C103.548 529.977 104 531.033 104 533.477C104 535.402 104.45 536.977 105 536.977C105.55 536.977 106 537.652 106 538.477C106 539.302 106.675 539.977 107.5 539.977C108.415 539.977 109 540.91 109 542.37C109 543.686 109.675 545.022 110.5 545.339C111.325 545.655 112 546.828 112 547.946C112 549.063 112.45 549.977 113 549.977C113.55 549.977 114 550.652 114 551.477C114 552.302 114.675 552.977 115.5 552.977C116.433 552.977 117 553.921 117 555.477C117 556.852 117.45 557.977 118 557.977C118.55 557.977 119 558.652 119 559.477C119 560.302 119.675 560.977 120.5 560.977C121.325 560.977 122 561.459 122 562.048C122 562.638 122.563 563.747 123.25 564.514C126.218 567.823 127 568.954 127 569.935C127 570.508 127.675 570.977 128.5 570.977C129.325 570.977 130 571.459 130 572.048C130 573.433 132.544 575.977 133.929 575.977C134.518 575.977 135 576.652 135 577.477C135 578.302 135.482 578.977 136.071 578.977C136.661 578.977 137.77 579.54 138.537 580.227C141.846 583.195 142.977 583.977 143.958 583.977C144.531 583.977 145 584.652 145 585.477C145 586.302 145.675 586.977 146.5 586.977C147.325 586.977 148 587.378 148 587.869C148 588.359 149.125 589.043 150.5 589.388C151.875 589.733 153 590.457 153 590.996C153 591.536 154.125 591.977 155.5 591.977C156.875 591.977 158 592.427 158 592.977C158 593.527 158.675 593.977 159.5 593.977C160.325 593.977 161 594.652 161 595.477C161 596.525 162.056 596.977 164.5 596.977C166.944 596.977 168 597.429 168 598.477C168 599.302 168.675 599.977 169.5 599.977C170.325 599.977 171 599.495 171 598.906C171 598.316 171.69 597.144 172.534 596.3C174.075 594.76 173.649 590.828 171.868 590.144C171.391 589.96 171 589.173 171 588.394C171 587.549 169.99 586.977 168.5 586.977C167.125 586.977 166 586.576 166 586.085C166 585.595 164.875 584.911 163.5 584.566C162.125 584.221 161 583.497 161 582.958C161 582.418 160.325 581.977 159.5 581.977C158.675 581.977 158 581.576 158 581.085C158 580.595 156.875 579.911 155.5 579.566C154.125 579.221 153 578.497 153 577.958C153 577.418 152.325 576.977 151.5 576.977C150.675 576.977 150 576.302 150 575.477C150 574.652 149.325 573.977 148.5 573.977C147.675 573.977 147 573.557 147 573.044C147 572.531 146.035 571.806 144.856 571.431C141.807 570.464 137 565.269 137 562.943C137 561.861 136.518 560.977 135.929 560.977C134.544 560.977 132 558.433 132 557.048C132 556.459 131.325 555.977 130.5 555.977C129.675 555.977 129 555.302 129 554.477C129 553.652 128.559 552.977 128.019 552.977C127.48 552.977 126.756 551.852 126.411 550.477C126.066 549.102 125.382 547.977 124.892 547.977C124.401 547.977 124 547.495 124 546.906C124 546.316 123.438 545.207 122.75 544.44C119.506 540.823 119 539.889 119 537.519C119 535.926 118.44 534.977 117.5 534.977C116.675 534.977 116 534.495 116 533.906C116 533.316 115.325 532.159 114.5 531.334C113.675 530.509 113 528.741 113 527.406C113 526.07 112.55 524.977 112 524.977C111.45 524.977 111 523.177 111 520.977C111 518.777 110.518 516.977 109.929 516.977C108.544 516.977 106 514.433 106 513.048C106 512.459 104.875 511.977 103.5 511.977C101.944 511.977 101 512.544 101 513.477ZM350 512.977C350 513.527 349.55 513.977 349 513.977C348.45 513.977 348 513.527 348 512.977C348 512.427 348.45 511.977 349 511.977C349.55 511.977 350 512.427 350 512.977ZM171 520.977C171 521.527 170.55 521.977 170 521.977C169.45 521.977 169 521.527 169 520.977C169 520.427 169.45 519.977 170 519.977C170.55 519.977 171 520.427 171 520.977ZM70 526.477C70 527.302 69.325 527.977 68.5 527.977C67.323 527.977 67 529.354 67 534.37C67 539.13 67.383 540.91 68.5 541.339C69.364 541.67 70 543.164 70 544.862C70 546.484 70.337 547.96 70.75 548.144C72.255 548.813 75 555.216 75 558.058C75 559.986 75.509 560.977 76.5 560.977C77.433 560.977 78 561.921 78 563.477C78 564.852 78.45 565.977 79 565.977C79.55 565.977 80 566.652 80 567.477C80 568.302 80.675 568.977 81.5 568.977C82.433 568.977 83 569.921 83 571.477C83 573.033 83.567 573.977 84.5 573.977C85.433 573.977 86 574.921 86 576.477C86 577.852 86.45 578.977 87 578.977C87.55 578.977 88 579.652 88 580.477C88 581.302 88.42 581.977 88.933 581.977C89.446 581.977 90.18 582.969 90.565 584.18C91.382 586.755 93.403 588.977 94.929 588.977C95.518 588.977 96 589.486 96 590.109C96 590.731 97.575 592.726 99.5 594.542C101.425 596.357 103 598.323 103 598.91C103 599.497 103.675 599.977 104.5 599.977C105.325 599.977 106 600.652 106 601.477C106 602.302 106.675 602.977 107.5 602.977C108.325 602.977 109 603.427 109 603.977C109 604.527 109.482 604.977 110.071 604.977C111.456 604.977 114 607.521 114 608.906C114 610.409 118.736 610.249 119.28 608.727C119.539 608 120.097 607.848 120.613 608.364C121.129 608.88 120.977 609.438 120.25 609.697C118.742 610.236 118.569 612.977 120.042 612.977C121.023 612.977 122.154 613.759 125.463 616.727C127.067 618.165 134 618.435 134 617.059C134 616.554 134.273 615.429 134.607 614.559C135.005 613.521 134.662 612.977 133.607 612.977C132.723 612.977 132 612.302 132 611.477C132 610.652 132.45 609.977 133 609.977C133.55 609.977 134 609.527 134 608.977C134 608.427 132.875 607.977 131.5 607.977C129.944 607.977 129 607.41 129 606.477C129 605.652 128.518 604.977 127.929 604.977C126.544 604.977 124 602.433 124 601.048C124 600.459 122.875 599.977 121.5 599.977C120.125 599.977 119 599.527 119 598.977C119 598.427 118.325 597.977 117.5 597.977C116.675 597.977 116 597.302 116 596.477C116 595.652 115.518 594.977 114.929 594.977C113.544 594.977 111 592.433 111 591.048C111 590.459 110.325 589.977 109.5 589.977C108.675 589.977 108 589.495 108 588.906C108 587.38 105.778 585.359 103.203 584.542C101.992 584.157 101 583.345 101 582.737C101 580.525 97.467 574.028 96.25 574.003C95.563 573.989 95 572.852 95 571.477C95 570.102 94.55 568.977 94 568.977C93.45 568.977 93 568.302 93 567.477C93 566.652 92.559 565.977 92.019 565.977C91.48 565.977 90.756 564.852 90.411 563.477C90.066 562.102 89.431 560.977 89 560.977C88.569 560.977 87.934 559.852 87.589 558.477C87.244 557.102 86.52 555.977 85.981 555.977C85.441 555.977 85 554.627 85 552.977C85 551.327 84.559 549.977 84.019 549.977C83.48 549.977 82.756 548.852 82.411 547.477C82.066 546.102 81.382 544.977 80.892 544.977C80.401 544.977 80 542.727 80 539.977C80 536.199 79.633 534.977 78.5 534.977C77.567 534.977 77 534.033 77 532.477C77 531.102 76.599 529.977 76.108 529.977C75.618 529.977 74.934 528.852 74.589 527.477C73.899 524.727 70 523.877 70 526.477ZM116 538.977C116 539.527 115.55 539.977 115 539.977C114.45 539.977 114 539.527 114 538.977C114 538.427 114.45 537.977 115 537.977C115.55 537.977 116 538.427 116 538.977ZM121 546.977C121 547.527 120.55 547.977 120 547.977C119.45 547.977 119 547.527 119 546.977C119 546.427 119.45 545.977 120 545.977C120.55 545.977 121 546.427 121 546.977ZM392 546.977C392 547.527 391.55 547.977 391 547.977C390.45 547.977 390 547.527 390 546.977C390 546.427 390.45 545.977 391 545.977C391.55 545.977 392 546.427 392 546.977ZM259 549.477C259 550.302 258.55 550.977 258 550.977C257.45 550.977 257 550.302 257 549.477C257 548.652 257.45 547.977 258 547.977C258.55 547.977 259 548.652 259 549.477ZM314 559.477C314 560.302 313.325 560.977 312.5 560.977C310.938 560.977 310.516 559.794 311.667 558.644C312.817 557.493 314 557.915 314 559.477ZM127 561.977C127 562.527 126.325 562.977 125.5 562.977C124.675 562.977 124 562.527 124 561.977C124 561.427 124.675 560.977 125.5 560.977C126.325 560.977 127 561.427 127 561.977ZM363 561.977C363 562.527 362.55 562.977 362 562.977C361.45 562.977 361 562.527 361 561.977C361 561.427 361.45 560.977 362 560.977C362.55 560.977 363 561.427 363 561.977ZM85 564.977C85 565.527 84.55 565.977 84 565.977C83.45 565.977 83 565.527 83 564.977C83 564.427 83.45 563.977 84 563.977C84.55 563.977 85 564.427 85 564.977ZM129 564.977C129 565.527 128.55 565.977 128 565.977C127.45 565.977 127 565.527 127 564.977C127 564.427 127.45 563.977 128 563.977C128.55 563.977 129 564.427 129 564.977ZM371 564.977C371 565.527 370.55 565.977 370 565.977C369.45 565.977 369 565.527 369 564.977C369 564.427 369.45 563.977 370 563.977C370.55 563.977 371 564.427 371 564.977ZM563 567.977C563 569.23 561.939 569.23 560 567.977C558.787 567.193 558.931 567.005 560.75 566.992C561.987 566.984 563 567.427 563 567.977ZM366 569.977C366 570.527 365.55 570.977 365 570.977C364.45 570.977 364 570.527 364 569.977C364 569.427 364.45 568.977 365 568.977C365.55 568.977 366 569.427 366 569.977ZM485 569.977C485 570.527 484.55 570.977 484 570.977C483.45 570.977 483 570.527 483 569.977C483 569.427 483.45 568.977 484 568.977C484.55 568.977 485 569.427 485 569.977ZM574 569.977C574 570.527 573.55 570.977 573 570.977C572.45 570.977 572 570.527 572 569.977C572 569.427 572.45 568.977 573 568.977C573.55 568.977 574 569.427 574 569.977ZM551 572.977C551 573.527 550.325 573.977 549.5 573.977C548.675 573.977 548 573.527 548 572.977C548 572.427 548.675 571.977 549.5 571.977C550.325 571.977 551 572.427 551 572.977ZM498 577.977C498 578.527 497.55 578.977 497 578.977C496.45 578.977 496 578.527 496 577.977C496 577.427 496.45 576.977 497 576.977C497.55 576.977 498 577.427 498 577.977ZM145 580.477C145 581.302 144.325 581.977 143.5 581.977C141.938 581.977 141.516 580.794 142.667 579.644C143.817 578.493 145 578.915 145 580.477ZM579 580.477C579 581.302 578.55 581.977 578 581.977C577.45 581.977 577 581.302 577 580.477C577 579.652 577.45 578.977 578 578.977C578.55 578.977 579 579.652 579 580.477ZM150 582.977C150 583.527 149.325 583.977 148.5 583.977C147.675 583.977 147 583.527 147 582.977C147 582.427 147.675 581.977 148.5 581.977C149.325 581.977 150 582.427 150 582.977ZM156 582.977C156 583.527 155.325 583.977 154.5 583.977C153.675 583.977 153 583.527 153 582.977C153 582.427 153.675 581.977 154.5 581.977C155.325 581.977 156 582.427 156 582.977ZM293 587.977C293 588.527 292.55 588.977 292 588.977C291.45 588.977 291 588.527 291 587.977C291 587.427 291.45 586.977 292 586.977C292.55 586.977 293 587.427 293 587.977ZM418 589.477C418 590.852 417.55 591.977 417 591.977C416.45 591.977 416 590.852 416 589.477C416 588.102 416.45 586.977 417 586.977C417.55 586.977 418 588.102 418 589.477ZM290 590.977C290 591.527 289.55 591.977 289 591.977C288.45 591.977 288 591.527 288 590.977C288 590.427 288.45 589.977 289 589.977C289.55 589.977 290 590.427 290 590.977ZM111 595.977C111 596.527 110.55 596.977 110 596.977C109.45 596.977 109 596.527 109 595.977C109 595.427 109.45 594.977 110 594.977C110.55 594.977 111 595.427 111 595.977ZM293 595.977C293 596.527 292.55 596.977 292 596.977C291.45 596.977 291 596.527 291 595.977C291 595.427 291.45 594.977 292 594.977C292.55 594.977 293 595.427 293 595.977ZM301 629.977C301 630.527 300.55 630.977 300 630.977C299.45 630.977 299 630.527 299 629.977C299 629.427 299.45 628.977 300 628.977C300.55 628.977 301 629.427 301 629.977ZM251 648.477C251 649.302 250.55 649.977 250 649.977C249.45 649.977 249 649.302 249 648.477C249 647.652 249.45 646.977 250 646.977C250.55 646.977 251 647.652 251 648.477ZM246 651.977C246 653.077 245.55 653.977 245 653.977C244.45 653.977 244 653.077 244 651.977C244 650.877 244.45 649.977 245 649.977C245.55 649.977 246 650.877 246 651.977ZM433 650.977C433 651.527 432.55 651.977 432 651.977C431.45 651.977 431 651.527 431 650.977C431 650.427 431.45 649.977 432 649.977C432.55 649.977 433 650.427 433 650.977ZM251.771 663.79C251.989 664.443 251.454 664.977 250.583 664.977C249.712 664.977 249 664.265 249 663.394C249 661.628 251.153 661.935 251.771 663.79ZM259 663.977C259 664.527 258.55 664.977 258 664.977C257.45 664.977 257 664.527 257 663.977C257 663.427 257.45 662.977 258 662.977C258.55 662.977 259 663.427 259 663.977ZM267 671.477C267 672.302 266.55 672.977 266 672.977C265.45 672.977 265 672.302 265 671.477C265 670.652 265.45 669.977 266 669.977C266.55 669.977 267 670.652 267 671.477ZM259 673.977C259 674.527 258.55 674.977 258 674.977C257.45 674.977 257 674.527 257 673.977C257 673.427 257.45 672.977 258 672.977C258.55 672.977 259 673.427 259 673.977ZM389 725.977C389 726.527 388.55 726.977 388 726.977C387.45 726.977 387 726.527 387 725.977C387 725.427 387.45 724.977 388 724.977C388.55 724.977 389 725.427 389 725.977ZM610 725.977C610 726.527 609.55 726.977 609 726.977C608.45 726.977 608 726.527 608 725.977C608 725.427 608.45 724.977 609 724.977C609.55 724.977 610 725.427 610 725.977ZM615 728.977C615 729.527 614.55 729.977 614 729.977C613.45 729.977 613 729.527 613 728.977C613 728.427 613.45 727.977 614 727.977C614.55 727.977 615 728.427 615 728.977ZM603 733.977C603 734.527 602.325 734.977 601.5 734.977C600.675 734.977 600 734.527 600 733.977C600 733.427 600.675 732.977 601.5 732.977C602.325 732.977 603 733.427 603 733.977ZM618 733.977C618 734.527 617.325 734.977 616.5 734.977C615.675 734.977 615 734.527 615 733.977C615 733.427 615.675 732.977 616.5 732.977C617.325 732.977 618 733.427 618 733.977ZM348 756.036C348 757.104 347.325 757.977 346.5 757.977C345.017 757.977 344.403 754.907 345.639 753.671C346.682 752.628 348 753.949 348 756.036ZM363 756.977C363 757.527 362.55 757.977 362 757.977C361.45 757.977 361 757.527 361 756.977C361 756.427 361.45 755.977 362 755.977C362.55 755.977 363 756.427 363 756.977ZM374 756.977C374 757.527 373.55 757.977 373 757.977C372.45 757.977 372 757.527 372 756.977C372 756.427 372.45 755.977 373 755.977C373.55 755.977 374 756.427 374 756.977ZM363 764.977C363 765.527 362.55 765.977 362 765.977C361.45 765.977 361 765.527 361 764.977C361 764.427 361.45 763.977 362 763.977C362.55 763.977 363 764.427 363 764.977ZM509 775.477C509 776.302 508.577 776.977 508.059 776.977C506.798 776.977 505.895 775.415 506.694 774.616C507.82 773.49 509 773.931 509 775.477Z" fill="#5C1371"/>
</svg>

