<svg width="80" height="80" viewBox="0 0 80 80" fill="none" xmlns="http://www.w3.org/2000/svg">
<path d="M60.0003 50H53.3337V56.6667H60.0003M60.0003 36.6667H53.3337V43.3333H60.0003M66.667 63.3333H40.0003V56.6667H46.667V50H40.0003V43.3333H46.667V36.6667H40.0003V30H66.667M33.3337 23.3333H26.667V16.6667H33.3337M33.3337 36.6667H26.667V30H33.3337M33.3337 50H26.667V43.3333H33.3337M33.3337 63.3333H26.667V56.6667H33.3337M20.0003 23.3333H13.3337V16.6667H20.0003M20.0003 36.6667H13.3337V30H20.0003M20.0003 50H13.3337V43.3333H20.0003M20.0003 63.3333H13.3337V56.6667H20.0003M40.0003 23.3333V10H6.66699V70H73.3337V23.3333H40.0003Z" fill="#FFFAFA"/>
</svg>
