<svg width="80" height="80" viewBox="0 0 80 80" fill="none" xmlns="http://www.w3.org/2000/svg">
<path d="M40 45C59.25 45 75 57.5 75 67.5C75 69.4891 74.2098 71.3968 72.8033 72.8033C71.3968 74.2098 69.4891 75 67.5 75H12.5C10.5109 75 8.60322 74.2098 7.1967 72.8033C5.79018 71.3968 5 69.4891 5 67.5C5 57.5 20.75 45 40 45ZM40 5C44.6413 5 49.0925 6.84374 52.3744 10.1256C55.6563 13.4075 57.5 17.8587 57.5 22.5C57.5 27.1413 55.6563 31.5925 52.3744 34.8744C49.0925 38.1563 44.6413 40 40 40C35.3587 40 30.9075 38.1563 27.6256 34.8744C24.3437 31.5925 22.5 27.1413 22.5 22.5C22.5 17.8587 24.3437 13.4075 27.6256 10.1256C30.9075 6.84374 35.3587 5 40 5Z" fill="#FFFAFA"/>
</svg>
